<svg width="256" height="256" viewBox="0 0 256 256" fill="none" xmlns="http://www.w3.org/2000/svg">
<g clip-path="url(#clip0_6_2)">
<rect width="256" height="256" fill="white"/>
<rect width="256" height="256" fill="#EAEAEA"/>
<line x1="66" y1="20" x2="190" y2="20" stroke="black" stroke-width="2"/>
<line x1="66" y1="30" x2="190" y2="30" stroke="black" stroke-width="2"/>
<line x1="45" y1="52" x2="211" y2="52" stroke="black" stroke-width="2"/>
<line x1="45" y1="62" x2="211" y2="62" stroke="black" stroke-width="2"/>
<line x1="45" y1="72" x2="211" y2="72" stroke="black" stroke-width="2"/>
<line x1="45" y1="82" x2="211" y2="82" stroke="black" stroke-width="2"/>
<line x1="45" y1="92" x2="211" y2="92" stroke="black" stroke-width="2"/>
<line x1="66" y1="114" x2="190" y2="114" stroke="black" stroke-width="2"/>
<line x1="66" y1="124" x2="190" y2="124" stroke="black" stroke-width="2"/>
<line x1="45" y1="146" x2="211" y2="146" stroke="black" stroke-width="2"/>
<line x1="45" y1="156" x2="211" y2="156" stroke="black" stroke-width="2"/>
<line x1="45" y1="166" x2="211" y2="166" stroke="black" stroke-width="2"/>
<line x1="45" y1="176" x2="211" y2="176" stroke="black" stroke-width="2"/>
<line x1="45" y1="186" x2="211" y2="186" stroke="black" stroke-width="2"/>
<line x1="45" y1="196" x2="211" y2="196" stroke="black" stroke-width="2"/>
<line x1="45" y1="206" x2="211" y2="206" stroke="black" stroke-width="2"/>
<line x1="45" y1="216" x2="211" y2="216" stroke="black" stroke-width="2"/>
<line x1="45" y1="226" x2="211" y2="226" stroke="black" stroke-width="2"/>
<line x1="45" y1="236" x2="211" y2="236" stroke="black" stroke-width="2"/>
<line x1="45" y1="146" x2="211" y2="146" stroke="black" stroke-width="2"/>
<line x1="45" y1="156" x2="211" y2="156" stroke="black" stroke-width="2"/>
<line x1="45" y1="166" x2="211" y2="166" stroke="black" stroke-width="2"/>
<line x1="45" y1="176" x2="211" y2="176" stroke="black" stroke-width="2"/>
<line x1="45" y1="186" x2="211" y2="186" stroke="black" stroke-width="2"/>
</g>
<defs>
<clipPath id="clip0_6_2">
<rect width="256" height="256" fill="white"/>
</clipPath>
</defs>
</svg>
